<?xml version="1.0" encoding="iso-8859-1"?>
<!-- Generator: Adobe Illustrator 19.0.0, SVG Export Plug-In . SVG Version: 6.00 Build 0)  -->
<svg version="1.1" id="Layer_1" xmlns="http://www.w3.org/2000/svg" xmlns:xlink="http://www.w3.org/1999/xlink" x="0px" y="0px"
	 viewBox="0 0 505 505" style="enable-background:new 0 0 505 505;" xml:space="preserve">
<circle style="fill:#90DFAA;" cx="252.5" cy="252.5" r="252.5"/>
<path style="fill:#FFFFFF;" d="M390.7,165.1c-9.7-15.5-28.8-23.7-55.2-23.7c-7.4,0-15.3,0.7-23.3,1.9
	c-14.7-33.8-36.1-54.9-60.5-54.9c-24.3,0-45.8,21.1-60.4,54.9c-8-1.2-15.8-1.9-23.2-1.9c-26.4,0-45.5,8.2-55.2,23.7
	c-13.9,22.2-5.4,54.5,19.4,87.4c-24.9,32.8-33.4,65.2-19.4,87.4c9.7,15.5,28.8,23.7,55.2,23.7c7.4,0,15.1-0.7,23.2-1.9
	c14.6,33.9,36.1,54.9,60.4,54.9s45.8-21.1,60.4-55c8.1,1.2,15.9,1.9,23.3,1.9l0,0c26.4,0,45.5-8.2,55.2-23.7
	c13.9-22.2,5.4-54.5-19.4-87.4C396.2,219.7,404.7,187.3,390.7,165.1z M335.5,153.1c15.5,0,35.9,3.2,45.4,18.2
	c10.8,17.1,3.1,43.8-17.3,71.6c-9.6-11.3-21.1-22.6-34.3-33.4c-2.6-20.2-7-38.8-12.8-55C323.1,153.6,329.5,153.1,335.5,153.1z
	 M288.4,310.6c-12,7.5-24.3,14.2-36.5,19.8c-12.3-5.6-24.6-12.3-36.5-19.8c-10.7-6.7-20.8-13.9-30.1-21.4
	c-1.4-11.8-2.1-24.1-2.1-36.7s0.7-24.9,2.1-36.7c9.3-7.5,19.3-14.7,30.1-21.4c12-7.5,24.3-14.2,36.5-19.8
	c12.3,5.6,24.6,12.3,36.5,19.8c10.6,6.7,20.6,13.9,29.9,21.3c1.4,11.8,2.1,24.2,2.1,36.8c0,12.6-0.7,25-2.1,36.8
	C309,296.7,299,303.9,288.4,310.6z M315.8,306c-2.7,15.4-6.5,29.7-11.2,42.4c-12.3-2.6-25.3-6.6-38.6-11.9
	c9.5-4.8,19.1-10.1,28.5-16.1C302,315.8,309.1,310.9,315.8,306z M237.6,336.5c-13.3,5.3-26.3,9.3-38.7,11.9
	c-4.7-12.7-8.5-27.1-11.2-42.6c6.8,5,14,9.9,21.5,14.6C218.5,326.4,228,331.7,237.6,336.5z M172.4,278.3
	c-9.3-8.4-17.7-17.1-24.9-25.8c7.2-8.6,15.5-17.3,24.9-25.8c-0.6,8.4-0.9,17-0.9,25.8S171.8,269.9,172.4,278.3z M187.6,199.2
	c2.7-15.5,6.5-29.9,11.2-42.6c12.4,2.6,25.4,6.6,38.7,11.9c-9.5,4.8-19.1,10.1-28.5,16.1C201.6,189.3,194.4,194.2,187.6,199.2z
	 M266.1,168.5c13.2-5.3,26.2-9.3,38.6-11.9c4.7,12.7,8.5,27,11.2,42.4c-6.8-5-13.8-9.8-21.3-14.5
	C285.1,178.6,275.6,173.3,266.1,168.5z M331,226.6c9.4,8.5,17.8,17.2,25.1,25.9c-7.2,8.7-15.6,17.4-25.1,25.9c0.6-8.4,1-17.1,1-25.9
	C332,243.7,331.7,235,331,226.6z M251.7,100.1c18.7,0,35.9,17.6,48.4,45.6c-15.5,3.4-31.8,8.9-48.3,16.1
	c-16.6-7.3-32.9-12.8-48.5-16.2C215.9,117.6,233.1,100.1,251.7,100.1z M122.8,171.3c9.5-15.1,29.9-18.2,45.4-18.2
	c6,0,12.3,0.5,18.8,1.4c-5.8,16.3-10.2,34.9-12.8,55.2c-13.1,10.8-24.5,22-34.1,33.2C119.7,215.1,112,188.4,122.8,171.3z
	 M168.2,351.9c-15.5,0-35.9-3.2-45.4-18.2c-10.8-17.1-3.1-43.8,17.3-71.6c9.6,11.3,21,22.5,34.1,33.2c2.6,20.3,7,38.9,12.8,55.2
	C180.4,351.4,174.1,351.9,168.2,351.9z M251.7,405c-18.7,0-35.9-17.6-48.4-45.5c15.6-3.4,31.9-8.9,48.5-16.2
	c16.5,7.3,32.8,12.7,48.3,16.1C287.6,387.4,270.4,405,251.7,405z M380.9,333.7c-9.5,15.1-29.9,18.2-45.4,18.2l0,0
	c-6,0-12.3-0.5-18.9-1.4c5.8-16.2,10.2-34.8,12.8-55c13.1-10.8,24.6-22,34.3-33.4C384,289.9,391.6,316.6,380.9,333.7z"/>
<circle style="fill:#395767;" cx="251.8" cy="252.5" r="27"/>
<circle style="fill:#FF7058;" cx="386.6" cy="169.4" r="14.9"/>
<circle style="fill:#2DB39A;" cx="386.6" cy="338.4" r="14.9"/>
<g>
	<circle style="fill:#395767;" cx="251.8" cy="410.7" r="14.9"/>
	<circle style="fill:#395767;" cx="251.8" cy="94.3" r="14.9"/>
</g>
<circle style="fill:#2DB39A;" cx="118.4" cy="169.4" r="14.9"/>
<circle style="fill:#FF7058;" cx="118.4" cy="341" r="14.9"/>
<g>
</g>
<g>
</g>
<g>
</g>
<g>
</g>
<g>
</g>
<g>
</g>
<g>
</g>
<g>
</g>
<g>
</g>
<g>
</g>
<g>
</g>
<g>
</g>
<g>
</g>
<g>
</g>
<g>
</g>
</svg>
